<svg xmlns="http://www.w3.org/2000/svg" width="30" height="30" viewBox="0 0 30 30">
    <g fill="none" fill-rule="evenodd">
        <g>
            <ellipse cx="15.018" cy="15.349" fill="#FFF" rx="13.653" ry="13.953"/>
            <path fill="#607D8B" d="M15.035 1.458C7.72 1.458 1.768 7.5 1.768 14.926c0 7.427 5.951 13.469 13.267 13.469s13.268-6.042 13.268-13.47c0-7.425-5.952-13.467-13.268-13.467zm0 28.395C6.928 29.853.332 23.156.332 14.926S6.928 0 15.035 0 29.74 6.695 29.74 14.926c0 8.23-6.597 14.927-14.704 14.927z"/>
        </g>
        <path fill="#8BC34A" d="M15.443 19.227l.394-3.618c1.357.557 2.212 1.068 2.212 1.947 0 .849-1.195 1.591-2.606 1.67zm-2.502-7.214c0-1.183 1.383-1.4 2.015-1.439l-.328 2.991c-1.043-.455-1.687-.892-1.687-1.552zm6.533 5.543c0-1.961-1.777-2.774-3.473-3.436l.368-3.358c.658.232 1.086.632 1.086 1.008 0 .4.318.725.713.725a.719.719 0 0 0 .712-.725c0-1.145-.964-2.092-2.351-2.47l.09-.823a.723.723 0 0 0-.63-.8.73.73 0 0 0-.786.639l-.09.81c-2.153.031-3.597 1.18-3.597 2.887 0 1.66 1.452 2.442 2.948 3.049l-.44 4.015c-.968-.277-1.676-.867-1.676-1.52 0-.4-.319-.724-.713-.724a.717.717 0 0 0-.713.723c0 1.41 1.221 2.565 2.944 2.967l-.088.808c-.045.4.237.756.63.8l.078.005a.718.718 0 0 0 .708-.644l.087-.81c2.357-.031 4.193-1.39 4.193-3.126z"/>
    </g>
</svg>
