<svg xmlns="http://www.w3.org/2000/svg" width="110" height="27" viewBox="0 0 110 27">
    <g fill="#FFF" fill-rule="evenodd">
        <path d="M13.098 13.917c-.971 1.051-2.167 1.577-3.588 1.577-1.465 0-2.681-.517-3.647-1.551-.966-1.034-1.448-2.389-1.448-4.064 0-1.641.482-2.97 1.448-3.987.966-1.016 2.182-1.525 3.647-1.525 1.454 0 2.659.517 3.613 1.55.955 1.035 1.432 2.361 1.432 3.98 0 1.629-.486 2.97-1.457 4.02zM10.482 0a7.749 7.749 0 0 0-3.136.641c-.978.428-1.886 1.07-2.727 1.924V.485H0V26.24h4.619v-8.891c.908.877 1.823 1.51 2.743 1.897a7.629 7.629 0 0 0 2.984.581c2.397 0 4.47-.944 6.221-2.834 1.75-1.889 2.624-4.237 2.624-7.045 0-2.912-.846-5.298-2.54-7.158C14.958.93 12.903 0 10.482 0zM26.125.728c-.715.485-1.29 1.196-1.72 2.132V.485h-3.99v18.857h4.62v-7.627l-.017-.918c0-2.634.247-4.402.741-5.303.494-.9 1.1-1.352 1.816-1.352.352 0 .8.138 1.346.416L30.37.485C29.711.161 29.08 0 28.48 0c-.853 0-1.638.243-2.354.728M82 13.917c-.972 1.051-2.168 1.577-3.588 1.577-1.466 0-2.682-.517-3.647-1.551-.967-1.034-1.45-2.389-1.45-4.064 0-1.641.483-2.97 1.45-3.987.965-1.016 2.18-1.525 3.647-1.525 1.455 0 2.66.517 3.614 1.55.954 1.035 1.431 2.361 1.431 3.98 0 1.629-.486 2.97-1.457 4.02zM79.383 0a7.743 7.743 0 0 0-3.135.641c-.977.428-1.887 1.07-2.728 1.924V.485h-4.618V26.24h4.618v-8.891c.91.877 1.825 1.51 2.745 1.897a7.62 7.62 0 0 0 2.983.581c2.397 0 4.47-.944 6.22-2.834 1.75-1.889 2.625-4.237 2.625-7.045 0-2.912-.847-5.298-2.54-7.158C83.86.93 81.804 0 79.384 0zM45.208 13.882c-.968 1.029-2.18 1.543-3.637 1.543-1.457 0-2.66-.509-3.611-1.525-.95-1.017-1.425-2.346-1.425-3.987 0-1.595.48-2.903 1.443-3.925.96-1.022 2.165-1.534 3.61-1.534 1.48 0 2.694.505 3.645 1.516.95 1.012 1.425 2.326 1.425 3.943 0 1.618-.483 2.941-1.45 3.97zm1.237-12.548A9.71 9.71 0 0 0 41.511 0c-2.42 0-4.562.855-6.424 2.565-2.126 1.965-3.188 4.42-3.188 7.366 0 2.75.94 5.086 2.82 7.01 1.88 1.923 4.15 2.886 6.81 2.886 1.807 0 3.46-.436 4.96-1.309 1.499-.872 2.684-2.082 3.553-3.63a10.033 10.033 0 0 0 1.304-4.992 9.859 9.859 0 0 0-1.296-4.94 9.566 9.566 0 0 0-3.605-3.622zM100.243 0c-5.329 0-9.65 4.393-9.65 9.812 0 4.736 3.866 8.927 8.255 9.85l5.406-5.9L98.848 7.7v6.587c-1.868-.6-3.223-2.377-3.223-4.476 0-2.594 2.068-4.696 4.618-4.696 2.481 0 4.496 1.898 4.606 4.667l.007-.014v.17l.003.08-.003.07v8.661l.003-.001v.684h5.017V10.38c.005-.178.02-.346.02-.528v-.018C109.875 3.51 105.571 0 100.242 0M60.768 7.903l-1.705-.867c-.739-.37-1.202-.661-1.388-.875a1.041 1.041 0 0 1-.282-.702c0-.335.148-.615.443-.84.296-.226.704-.339 1.227-.339.955 0 2.018.59 3.188 1.769l2.88-2.93c-.74-1.004-1.639-1.776-2.702-2.313A7.429 7.429 0 0 0 59.03 0c-1.762 0-3.208.528-4.338 1.586-1.13 1.057-1.696 2.331-1.696 3.82 0 2.312 1.5 4.236 4.5 5.772l1.567.798c1.353.693 2.029 1.404 2.029 2.132 0 .393-.188.74-.563 1.04-.375.3-.869.45-1.482.45-.57 0-1.219-.2-1.953-.597a6.641 6.641 0 0 1-1.916-1.57l-2.863 3.172c1.612 2.15 3.771 3.224 6.476 3.224 2.033 0 3.656-.56 4.866-1.681 1.21-1.121 1.815-2.519 1.815-4.194 0-1.26-.335-2.357-1.006-3.293-.67-.937-1.903-1.855-3.698-2.756"/>
    </g>
</svg>
